<svg xmlns="http://www.w3.org/2000/svg" xmlns:xlink="http://www.w3.org/1999/xlink" width="800" height="1586" viewBox="0 0 800 1586">
  <defs>
    <clipPath id="clip-silouhette">
      <rect width="800" height="1586"/>
    </clipPath>
  </defs>
  <g id="silouhette" clip-path="url(#clip-silouhette)">
    <g id="silouhette-2" data-name="silouhette" transform="translate(94.89 2.015)">
      <path id="path943" d="M255.934,150.638c10.376,20.756,4.473,38.553,1.878,59.306C230.871,235.166,145.8,222.573,132.061,245.1c-28.642,43.383-118.1,172.529-118.979,211.85,1.052,34.527,72.115,159.482,113.18,201.867,9.771,2.162,25.3,3.712,31.5-1.406,3.236-17.768,2.7-32.293,6.461-45.736-5.208-3.064-9.932-.469-17.468,0C125.89,586.3,103.621,490.391,99.7,466.5c18.979-34.311,31.666-78.462,63.8-129.006,8.931,66.979,28.494,172.579,20.046,212.261C113,703.539,194.491,1020.738,196.6,1079.052c-23.246,110.466,33.442,326.5,34.881,346.536-1.543,18.525-12.582,32.221-5.568,43.682-9.381,39.789-16.208,54.17-8.423,77.524s64.03,29.158,74.846,14.777c3.366-21.877-2.191-77.056-9.973-87.436,4.137-8.866,9.158-40.042.71-66.748-9.937-34.167,20.994-227.312-2.793-281.266,3.031-12.254,7.832-52.223,7.882-70.064-2.9-10.7,1.73-126.5,7.208-216.932,5.5,90.535,10.117,206.985,7.208,217.725-10.376,10.38,1.867,66.713,9.371,77.489-7.4,22.67,11.616,239.674,27.009,264.9-8.434,26.706,1.045,53.413,5.19,62.279-7.785,10.38-16.327,71.506-12.975,93.383,10.812,14.416,70.064,2.631,77.849-20.724s-3.532-30.275-12.9-70.064c6.992-11.5-2.667-38.564-4.217-57.089,1.442-20.039,31.428-210.769,8.181-324.227-3.82-52.368,93.13-386.866,14.056-533.265,3.28-43.61-1.55-153.319,7.749-216.377-2.595,23.34,9.082,173.272,25.986,217.782-11.425,54.891,6.307,208.642-4.073,224.212-4.433,18.525-5.082,49.16-7.028,72.623,12.975-7.785,10.993-16.543,18.886-11.461,9.371,18.489-20.94,39.609-21.048,56.008,20.724,0,59.4-26.022,44.475-113.1-.072-34.924,57.594-223.636,29.878-270.381,9.551-30.347-13.587-218.741-31.788-256.163-13.732-22.522-100.915-13.746-127.838-38.971-2.595-20.753-12.975-41.527-2.595-62.283C370.061,117.7,370.926,6.845,305.959,6.25c-83.842.047-73.376,110.664-50.025,144.388Z" transform="translate(0 6.716)" fill="#f0f0f0" stroke="#000" stroke-linejoin="round" stroke-width="1.333" fill-rule="evenodd"/>
      <path id="path910" d="M138.736,3.73C111.921,4.923,85.085,22.891,73.75,64.777c1.723-.865,3.222.432,5.55-.22a62.364,62.364,0,0,0-.995,20.079,31.4,31.4,0,0,1,6.707-1.73c-1.052-2.627.285-13.775,2.173-20.151,33.327-10.729,87.118-12.106,107.986,2.13,4.793,8.668,3.856,23.769,3.856,25.387,1.838-.933,4.685,1.323,6.055-.159,0-2.847.685-13.141-1.658-22.782,1.586.306,5.01,1.838,6.091,2.108-1.261-38.647-36.293-67.246-70.781-65.71Z" transform="translate(157.986 0)" fill="gray" stroke="#000" stroke-width="1.333" fill-rule="evenodd"/>
    </g>
  </g>
</svg>
