<svg xmlns="http://www.w3.org/2000/svg" xmlns:xlink="http://www.w3.org/1999/xlink" width="1604" height="1100" viewBox="0 0 1604 1100">
  <defs>
    <filter id="_4" x="-5" y="243.984" width="516" height="1051" filterUnits="userSpaceOnUse">
      <feOffset dx="10" dy="10" input="SourceAlpha"/>
      <feGaussianBlur stdDeviation="5" result="blur"/>
      <feFlood flood-opacity="0.161"/>
      <feComposite operator="in" in2="blur"/>
      <feComposite in="SourceGraphic"/>
    </filter>
    <filter id="_4-2" x="1101.164" y="240" width="524" height="1051" filterUnits="userSpaceOnUse">
      <feOffset dx="10" dy="10" input="SourceAlpha"/>
      <feGaussianBlur stdDeviation="5" result="blur-2"/>
      <feFlood flood-opacity="0.161"/>
      <feComposite operator="in" in2="blur-2"/>
      <feComposite in="SourceGraphic"/>
    </filter>
    <clipPath id="clip-error404">
      <rect width="1604" height="1100"/>
    </clipPath>
  </defs>
  <g id="error404" clip-path="url(#clip-error404)">
    <rect width="1604" height="1100" fill="#fff"/>
    <g id="_404" data-name="404" transform="translate(-386 -352)">
      <g id="Brain" transform="translate(887.561 786.817)">
        <g id="rightBrain" transform="translate(293.462)">
          <path id="Tracé_1" data-name="Tracé 1" d="M553.465,307.277c7.9-44.234,53.974-62.774,98.733-48.138s52.657,54.643,52.657,54.643,13.169-7.723,46.075,24.719c19.988,19.706,9.215,54.642,9.215,54.642s41.138,21.792,51.341,49.438-10.531,67.653-10.531,67.653S854.6,540.809,844.4,583.092s-32.911,57.245-32.911,57.245,31.594,3.9,32.911,45.535-32.911,53.341-32.911,53.341,9.544,46.511-10.531,72.857S731.184,844.6,731.184,844.6s-43.771,58.22-88.2,54.642-88.2-31.224-89.518-68.954C552.611,805.8,550.693,322.8,553.465,307.277Z" transform="translate(-552.02 -254.214)" fill="none" stroke="#515151" stroke-linecap="round" stroke-linejoin="round" stroke-width="15"/>
          <path id="Tracé_11" data-name="Tracé 11" d="M729.974,555C699.7,578.557,676,572.013,676,572.013" transform="translate(-473.141 -167.641)" fill="none" stroke="#515151" stroke-linecap="round" stroke-width="15"/>
          <path id="Tracé_12" data-name="Tracé 12" d="M816.506,303.585C779.646,291.807,752,325.833,752,325.833" transform="translate(-662.355 -243.664)" fill="none" stroke="#515151" stroke-linecap="round" stroke-width="15"/>
          <path id="Tracé_13" data-name="Tracé 13" d="M803.357,711.778s-3-35.793,8.4-61.444c45.972-50.989,80.044-41.157,80.044-41.157" transform="translate(-802.157 -152.609)" fill="none" stroke="#515151" stroke-linecap="round" stroke-linejoin="round" stroke-width="15"/>
          <path id="Tracé_14" data-name="Tracé 14" d="M714,447.16c10.531-104.7,102.682-83.756,102.682-83.756" transform="translate(-609.874 -225.885)" fill="none" stroke="#515151" stroke-linecap="round" stroke-width="15"/>
          <path id="Tracé_15" data-name="Tracé 15" d="M859.834,422s11.848,47.113-43.442,74.6-88.2-6.543-88.2-6.543" transform="translate(-672.772 -210.402)" fill="none" stroke="#515151" stroke-linecap="round" stroke-width="15"/>
          <path id="Tracé_16" data-name="Tracé 16" d="M802.567,537.348C744.644,530.8,751.226,485,751.226,485" transform="translate(-644.467 -188.801)" fill="none" stroke="#515151" stroke-linecap="round" stroke-width="15"/>
          <path id="Tracé_17" data-name="Tracé 17" d="M841.936,432.7c13.031-25.955,39.577-24.151,39.577-24.151" transform="translate(-841.807 -216.915)" fill="none" stroke="#515151" stroke-linecap="round" stroke-width="15"/>
          <g id="Ellipse_1" data-name="Ellipse 1" transform="translate(52.787 99.181)" fill="#515151" stroke="#515151" stroke-width="1">
            <circle cx="11.778" cy="11.778" r="11.778" stroke="none"/>
            <circle cx="11.778" cy="11.778" r="11.278" fill="none"/>
          </g>
          <path id="Tracé_18" data-name="Tracé 18" d="M743.692,568.882c69.429-.775,93.612,51.959,93.612,51.959" transform="translate(-669.583 -163.609)" fill="none" stroke="#515151" stroke-linecap="round" stroke-width="15"/>
          <path id="Tracé_19" data-name="Tracé 19" d="M817.848,572.335c-10.141-1.551-36.86,5.429-56.167,26.367S741.4,635.151,740.618,656.09" transform="translate(-636.865 -64.35)" fill="none" stroke="#515151" stroke-linecap="round" stroke-linejoin="round" stroke-width="15"/>
        </g>
        <g id="leftBrain">
          <path id="Tracé_1-2" data-name="Tracé 1" d="M844.243,307.277c-7.9-44.234-53.974-62.774-98.733-48.138s-52.657,54.643-52.657,54.643-13.169-7.723-46.075,24.719c-19.988,19.706-9.215,54.642-9.215,54.642s-41.138,21.792-51.341,49.438,10.531,67.653,10.531,67.653-53.645,30.574-43.442,72.857,32.911,57.245,32.911,57.245-31.594,3.9-32.911,45.535,32.911,53.341,32.911,53.341-9.544,46.511,10.531,72.857S666.524,844.6,666.524,844.6s43.772,58.22,88.2,54.642,88.2-31.224,89.518-68.954C845.1,805.8,847.015,322.8,844.243,307.277Z" transform="translate(-552.02 -254.214)" fill="none" stroke="#515151" stroke-linecap="round" stroke-linejoin="round" stroke-width="15"/>
          <path id="Tracé_11-2" data-name="Tracé 11" d="M676,555c30.278,23.556,53.974,17.013,53.974,17.013" transform="translate(-639.167 -167.641)" fill="none" stroke="#515151" stroke-linecap="round" stroke-width="15"/>
          <path id="Tracé_12-2" data-name="Tracé 12" d="M752,303.585c36.86-11.778,64.505,22.248,64.505,22.248" transform="translate(-612.485 -243.664)" fill="none" stroke="#515151" stroke-linecap="round" stroke-width="15"/>
          <path id="Tracé_13-2" data-name="Tracé 13" d="M891.446,711.778s3-35.793-8.4-61.444C837.073,599.345,803,609.177,803,609.177" transform="translate(-598.979 -152.609)" fill="none" stroke="#515151" stroke-linecap="round" stroke-linejoin="round" stroke-width="15"/>
          <path id="Tracé_14-2" data-name="Tracé 14" d="M816.682,447.16C806.151,342.464,714,363.4,714,363.4" transform="translate(-627.142 -225.885)" fill="none" stroke="#515151" stroke-linecap="round" stroke-width="15"/>
          <path id="Tracé_15-2" data-name="Tracé 15" d="M729.257,422s-11.848,47.113,43.442,74.6,88.2-6.543,88.2-6.543" transform="translate(-622.652 -210.402)" fill="none" stroke="#515151" stroke-linecap="round" stroke-width="15"/>
          <path id="Tracé_16-2" data-name="Tracé 16" d="M751,537.348C808.924,530.8,802.342,485,802.342,485" transform="translate(-615.434 -188.801)" fill="none" stroke="#515151" stroke-linecap="round" stroke-width="15"/>
          <path id="Tracé_17-2" data-name="Tracé 17" d="M881.513,432.7c-13.031-25.955-39.577-24.151-39.577-24.151" transform="translate(-587.975 -216.915)" fill="none" stroke="#515151" stroke-linecap="round" stroke-width="15"/>
          <g id="Ellipse_1-2" data-name="Ellipse 1" transform="translate(217.185 99.181)" fill="#515151" stroke="#515151" stroke-width="1">
            <circle cx="11.778" cy="11.778" r="11.778" stroke="none"/>
            <circle cx="11.778" cy="11.778" r="11.278" fill="none"/>
          </g>
          <path id="Tracé_18-2" data-name="Tracé 18" d="M837.3,568.882c-69.429-.775-93.612,51.959-93.612,51.959" transform="translate(-617.747 -163.609)" fill="none" stroke="#515151" stroke-linecap="round" stroke-width="15"/>
          <path id="Tracé_19-2" data-name="Tracé 19" d="M740.618,572.335c10.141-1.551,36.859,5.429,56.167,26.367s20.283,36.449,21.063,57.388" transform="translate(-627.934 -64.35)" fill="none" stroke="#515151" stroke-linecap="round" stroke-linejoin="round" stroke-width="15"/>
        </g>
      </g>
      <g transform="matrix(1, 0, 0, 1, 386, 352)" filter="url(#_4)">
        <text id="_4-3" data-name="4" transform="translate(0 248.98)" fill="#515151" font-size="908" font-family="PoorRichard-Regular, Poor Richard"><tspan x="0" y="825">4</tspan></text>
      </g>
      <g transform="matrix(1, 0, 0, 1, 386, 352)" filter="url(#_4-2)">
        <text id="_4-4" data-name="4" transform="translate(1106.16 245)" fill="#515151" font-size="908" font-family="PoorRichard-Regular, Poor Richard"><tspan x="0" y="825">4</tspan></text>
      </g>
    </g>
    <text id="Erreur_-_page_non_trouvée." data-name="Erreur - page non trouvée." transform="translate(-3 177)" fill="#515151" font-size="161" font-family="PMingLiU-ExtB"><tspan x="0" y="0">Erreur - page non trouvée.</tspan></text>
  </g>
</svg>
